<svg xmlns="http://www.w3.org/2000/svg" viewBox="0 0 85.25 18.64"><title>Infinix</title><path d="M55.67 5.35h-7.08c-.71 0-1.37.35-1.76.94v-.94h-3.16v13.18h3.16v-8.48c0-1.04.84-1.88 1.88-1.88h6.01c1.04 0 1.88.84 1.88 1.88v8.48h3.1V9.1a3.957 3.957 0 00-4.03-3.75zM.13 1.56h3.16v16.97H.13zM37.29 5.33h3.18v13.2h-3.18zM62.91 5.35h3.16v13.18h-3.16zM18.49 5.35h-7.08c-.71 0-1.37.35-1.76.94v-.94H6.49v13.18h3.16v-8.48c0-1.04.84-1.88 1.88-1.88h6.01c1.04 0 1.88.84 1.88 1.88v8.48h3.1V9.1a3.957 3.957 0 00-4.03-3.75zM37.29.11h3.18v2.73h-3.18zM62.91.11h3.16v2.73h-3.16zM78.61 11.95l6.51-6.6h-3.94l-4.56 4.6-4.55-4.6h-3.95l6.52 6.6-6.52 6.58h4l4.5-4.57 4.51 4.57h4zM29.96 4.19c0-.08 0-.16.01-.23 0-.02-.01-.05-.01-.07 0-.22.07-.43.19-.6.03-.04.06-.08.1-.12.2-.21.47-.33.76-.33h3.54V.11h-2.8c-.04.02-.45-.02-1.01.01h-.06C29.57.1 28.5.52 27.7 1.29a3.29 3.29 0 00-.9 2.18v1.89h-4.12s1.13.41 1.91 2.81h2.21v10.37h3.16V8.16h4.59V5.35h-4.59V4.19z"></path></svg>