<svg width="24" height="24" viewBox="0 0 32 32" fill="none" xmlns="http://www.w3.org/2000/svg">
<path d="M5.2555 2.23924L29.2736 15.449C29.3755 15.5052 29.4606 15.5877 29.5198 15.6879C29.5791 15.7881 29.6103 15.9024 29.6103 16.0189C29.6103 16.1353 29.5791 16.2496 29.5198 16.3498C29.4606 16.45 29.3755 16.5325 29.2736 16.5887L5.2555 29.7985C5.15647 29.8529 5.04494 29.8807 4.93192 29.8789C4.8189 29.8772 4.70829 29.846 4.61099 29.7885C4.51368 29.731 4.43304 29.6491 4.37702 29.5509C4.321 29.4528 4.29152 29.3417 4.2915 29.2286V2.80905C4.29152 2.69602 4.321 2.58494 4.37702 2.48677C4.43304 2.3886 4.51368 2.30672 4.61099 2.2492C4.70829 2.19168 4.8189 2.16052 4.93192 2.15877C5.04494 2.15702 5.15647 2.18476 5.2555 2.23924ZM6.89339 17.3198V25.9282L24.9115 16.0189L6.89339 6.10955V14.7179H13.3981V17.3198H6.89339Z" fill="white"/>
</svg>
